<?xml version="1.0" standalone="no"?>
<!DOCTYPE svg PUBLIC "-//W3C//DTD SVG 20010904//EN"
 "http://www.w3.org/TR/2001/REC-SVG-20010904/DTD/svg10.dtd">
<svg version="1.0" xmlns="http://www.w3.org/2000/svg"
 width="1920.000000pt" height="1080.000000pt" viewBox="0 0 1920.000000 1080.000000"
 preserveAspectRatio="xMidYMid meet">

<g transform="translate(0.000000,1080.000000) scale(0.100000,-0.100000)"
fill="#000000" stroke="none">
<path d="M7973 7933 c75 -2 199 -2 275 0 75 1 13 3 -138 3 -151 0 -213 -2
-137 -3z"/>
<path d="M9408 7913 c6 -2 18 -2 25 0 6 3 1 5 -13 5 -14 0 -19 -2 -12 -5z"/>
<path d="M9948 7913 c6 -2 18 -2 25 0 6 3 1 5 -13 5 -14 0 -19 -2 -12 -5z"/>
<path d="M7684 7868 l-19 -23 23 19 c12 11 22 21 22 23 0 8 -8 2 -26 -19z"/>
<path d="M8510 7886 c0 -2 8 -10 18 -17 15 -13 16 -12 3 4 -13 16 -21 21 -21
13z"/>
<path d="M9274 7848 l-29 -33 33 29 c30 28 37 36 29 36 -2 0 -16 -15 -33 -32z"/>
<path d="M7645 7305 c0 -258 1 -366 2 -238 2 127 2 339 0 470 -1 131 -2 27 -2
-232z"/>
<path d="M8574 7670 c0 -58 1 -81 3 -52 2 28 2 76 0 105 -2 28 -3 5 -3 -53z"/>
<path d="M10155 7295 c0 -236 1 -332 2 -212 2 120 2 314 0 430 -1 117 -2 19
-2 -218z"/>
<path d="M8045 7627 c-3 -7 -4 -154 -3 -327 l3 -315 65 0 65 0 0 185 1 185 -3
-182 -3 -183 -60 0 -60 0 0 320 0 319 63 4 62 3 -63 2 c-43 1 -64 -2 -67 -11z"/>
<path d="M9225 7260 c0 -212 1 -298 2 -192 2 105 2 279 0 385 -1 105 -2 19 -2
-193z"/>
<path d="M9625 7300 l0 -325 65 0 65 0 0 320 0 320 -2 -317 -3 -318 -60 0 -60
0 -3 323 -2 322 0 -325z"/>
<path d="M8575 7065 c0 -198 1 -280 2 -183 2 97 2 259 0 360 -1 101 -2 21 -2
-177z"/>
<path d="M10109 6753 c-13 -16 -12 -17 4 -4 9 7 17 15 17 17 0 8 -8 3 -21 -13z"/>
<path d="M8538 6303 c6 -2 18 -2 25 0 6 3 1 5 -13 5 -14 0 -19 -2 -12 -5z"/>
<path d="M9285 5600 c0 -393 1 -554 2 -357 2 196 2 518 0 715 -1 196 -2 35 -2
-358z"/>
<path d="M10118 6303 c6 -2 18 -2 25 0 6 3 1 5 -13 5 -14 0 -19 -2 -12 -5z"/>
<path d="M10658 6303 c6 -2 18 -2 25 0 6 3 1 5 -13 5 -14 0 -19 -2 -12 -5z"/>
<path d="M8404 6238 l-29 -33 33 29 c30 28 37 36 29 36 -2 0 -16 -15 -33 -32z"/>
<path d="M9999 6253 c-13 -16 -12 -17 4 -4 9 7 17 15 17 17 0 8 -8 3 -21 -13z"/>
<path d="M8361 6154 c0 -11 3 -14 6 -6 3 7 2 16 -1 19 -3 4 -6 -2 -5 -13z"/>
<path d="M10851 6154 c0 -11 3 -14 6 -6 3 7 2 16 -1 19 -3 4 -6 -2 -5 -13z"/>
<path d="M10335 6008 c-3 -7 -4 -153 -3 -323 l3 -310 65 0 65 0 0 320 0 320
-63 3 c-44 2 -64 -1 -67 -10z m125 -313 l0 -315 -60 0 -60 0 0 315 0 315 60 0
60 0 0 -315z"/>
<path d="M8755 5698 l0 -313 65 0 65 0 0 313 0 312 -2 -310 -3 -310 -60 0 -60
0 -3 310 -2 310 0 -312z"/>
<path d="M8405 5160 c10 -11 20 -20 23 -20 3 0 -3 9 -13 20 -10 11 -20 20 -23
20 -3 0 3 -9 13 -20z"/>
<path d="M10819 5153 c-13 -16 -12 -17 4 -4 9 7 17 15 17 17 0 8 -8 3 -21 -13z"/>
<path d="M8717 5093 l162 -3 4 -45 4 -45 -1 47 -1 48 -165 0 -165 1 162 -3z"/>
<path d="M9508 5073 c56 -2 148 -2 205 0 56 1 10 3 -103 3 -113 0 -159 -2
-102 -3z"/>
<path d="M10258 5073 c78 -2 206 -2 285 0 78 1 14 3 -143 3 -157 0 -221 -2
-142 -3z"/>
<path d="M8364 4875 c0 -71 1 -99 3 -62 2 37 2 96 0 130 -2 34 -3 4 -3 -68z"/>
<path d="M9224 4768 l-19 -23 23 19 c12 11 22 21 22 23 0 8 -8 2 -26 -19z"/>
<path d="M8472 4498 c-1 -97 1 -179 6 -181 4 -3 6 50 4 116 -4 221 -8 244 -10
65z"/>
<path d="M10248 4663 c7 -3 16 -2 19 1 4 3 -2 6 -13 5 -11 0 -14 -3 -6 -6z"/>
<path d="M10828 4663 c7 -3 16 -2 19 1 4 3 -2 6 -13 5 -11 0 -14 -3 -6 -6z"/>
<path d="M9114 4525 c0 -77 2 -107 3 -67 2 40 2 103 0 140 -2 37 -3 4 -3 -73z"/>
<path d="M9514 4520 c0 -80 2 -112 3 -72 2 39 2 105 0 145 -1 39 -3 7 -3 -73z"/>
<path d="M10495 4610 c10 -11 20 -20 23 -20 3 0 -3 9 -13 20 -10 11 -20 20
-23 20 -3 0 3 -9 13 -20z"/>
<path d="M10675 4075 c0 -247 1 -347 2 -222 2 126 2 328 0 450 -1 122 -2 20
-2 -228z"/>
<path d="M11065 4378 c-3 -7 -4 -150 -2 -318 l2 -305 3 313 2 312 60 0 60 0 0
-309 c0 -201 -4 -311 -10 -314 -6 -3 -5 -4 2 -3 10 2 13 70 13 317 l0 314 -63
3 c-44 2 -64 -1 -67 -10z"/>
<path d="M10068 4373 c17 -2 47 -2 65 0 17 2 3 4 -33 4 -36 0 -50 -2 -32 -4z"/>
<path d="M9312 4293 l198 -3 3 -413 2 -412 0 415 0 415 -200 0 -200 1 197 -3z"/>
<path d="M8477 3823 c-4 -3 -7 -86 -7 -184 l0 -178 -57 -4 -58 -4 60 1 60 1 5
188 c3 103 5 187 4 187 0 0 -4 -3 -7 -7z"/>
<path d="M10725 3530 c10 -11 20 -20 23 -20 3 0 -3 9 -13 20 -10 11 -20 20
-23 20 -3 0 3 -9 13 -20z"/>
<path d="M8639 3457 c4 -4 102 -6 217 -5 l209 3 -217 5 c-119 3 -214 2 -209
-3z"/>
<path d="M11093 3463 c9 -2 25 -2 35 0 9 3 1 5 -18 5 -19 0 -27 -2 -17 -5z"/>
<path d="M8118 3453 c23 -2 59 -2 80 0 20 2 1 4 -43 4 -44 0 -61 -2 -37 -4z"/>
<path d="M9978 3453 c12 -2 30 -2 40 0 9 3 -1 5 -23 4 -22 0 -30 -2 -17 -4z"/>
<path d="M10258 3453 c57 -2 147 -2 200 0 53 1 7 3 -103 3 -110 0 -154 -2 -97
-3z"/>
<path d="M11192 3423 l-2 -43 -257 -3 -258 -2 258 -3 c283 -2 272 -5 264 60
-3 30 -4 29 -5 -9z"/>
<path d="M11571 3234 c0 -11 3 -14 6 -6 3 7 2 16 -1 19 -3 4 -6 -2 -5 -13z"/>
<path d="M11218 3083 c34 -2 90 -2 125 0 34 2 6 3 -63 3 -69 0 -97 -1 -62 -3z"/>
</g>
</svg>
